<?xml version="1.0" standalone="no"?>
<!DOCTYPE svg PUBLIC "-//W3C//DTD SVG 20010904//EN"
 "http://www.w3.org/TR/2001/REC-SVG-20010904/DTD/svg10.dtd">
<svg version="1.0" xmlns="http://www.w3.org/2000/svg"
 width="800.000000pt" height="600.000000pt" viewBox="0 0 800.000000 600.000000"
 preserveAspectRatio="xMidYMid meet">

<g transform="translate(0.000000,600.000000) scale(0.100000,-0.100000)"
fill="#000000" stroke="none">
<path d="M0 5486 c1 -475 3 -513 18 -512 11 1 18 -8 20 -21 2 -13 8 -23 13
-23 5 0 8 -5 6 -12 -1 -7 4 -13 11 -14 6 -1 14 -3 17 -4 3 -1 9 -3 14 -4 5 0
13 -4 17 -8 3 -4 -3 -5 -16 -3 -16 3 -20 0 -16 -11 3 -9 6 -18 6 -20 0 -2 5
-4 11 -4 5 0 7 6 3 13 -4 6 2 3 15 -7 12 -11 19 -26 16 -34 -3 -8 2 -26 10
-39 13 -20 19 -22 31 -12 8 6 14 7 14 2 0 -6 -10 -15 -22 -21 -20 -9 -17 -10
16 -6 37 5 38 5 32 -20 -5 -21 -3 -24 11 -19 16 6 16 5 -1 -12 -12 -12 -15
-20 -7 -23 6 -2 9 -7 6 -12 -3 -5 4 -12 16 -15 14 -5 25 -2 30 6 5 8 9 9 9 4
0 -6 -6 -17 -13 -24 -10 -11 -9 -13 6 -8 14 5 16 2 11 -20 -5 -19 -4 -24 5
-18 15 9 63 -14 55 -27 -3 -4 -9 -6 -14 -3 -15 9 1 -33 20 -53 10 -11 16 -23
12 -27 -4 -4 6 -3 22 1 21 5 27 4 22 -5 -4 -6 -15 -11 -24 -11 -15 -1 -15 -2
2 -11 14 -9 20 -8 27 2 7 11 9 11 9 -3 0 -9 6 -19 13 -21 10 -4 9 -6 0 -6 -7
-1 -13 -9 -12 -18 0 -11 3 -13 6 -5 9 22 20 12 16 -15 -3 -27 -3 -27 8 -5 7
12 17 22 23 22 6 0 5 -5 -2 -12 -17 -17 -15 -31 2 -25 9 4 17 -2 21 -13 3 -11
12 -19 18 -17 7 1 11 -9 8 -28 -3 -27 -2 -28 15 -15 16 14 17 13 11 -3 -4 -11
-1 -20 8 -23 8 -3 11 -12 8 -21 -5 -12 -3 -14 8 -8 12 8 12 6 0 -9 -12 -15
-12 -17 0 -14 8 2 13 -4 13 -14 -1 -15 2 -16 20 -7 17 10 19 9 9 -2 -7 -7 -13
-20 -13 -28 0 -14 1 -14 10 -1 7 11 10 6 10 -20 0 -25 3 -31 9 -20 6 8 7 18 5
22 -3 4 -3 8 1 8 3 0 10 -12 16 -27 8 -22 12 -25 21 -13 8 12 9 12 4 -3 -3
-11 0 -20 9 -23 8 -4 12 -10 9 -15 -8 -13 5 -49 18 -49 7 0 6 5 -1 14 -9 11
-9 16 0 22 7 4 9 3 5 -4 -3 -6 -2 -13 3 -16 5 -4 7 -18 5 -32 -4 -21 -1 -25
11 -21 8 4 15 2 15 -4 0 -6 5 -7 10 -4 6 4 7 11 4 17 -4 7 -2 8 4 4 7 -4 9
-18 6 -33 -4 -15 -3 -24 3 -20 5 3 15 2 22 -2 10 -6 9 -10 -4 -14 -10 -5 -14
-3 -9 5 4 7 3 8 -4 4 -19 -12 -14 -26 11 -26 18 0 19 -2 7 -10 -11 -7 -11 -10
-2 -10 7 0 10 -5 6 -12 -5 -7 0 -9 14 -6 16 4 19 2 15 -10 -5 -11 -3 -13 7 -7
10 6 12 4 7 -9 -6 -16 -3 -17 20 -12 25 6 26 5 10 -8 -16 -13 -16 -14 10 -21
17 -5 23 -9 14 -13 -10 -3 -8 -10 10 -24 13 -11 17 -17 9 -13 -10 4 -9 1 3 -8
9 -8 17 -19 17 -24 0 -6 9 -13 21 -16 12 -3 19 -9 16 -14 -2 -4 -1 -18 4 -31
6 -17 14 -22 27 -18 13 4 19 1 19 -10 0 -10 -7 -14 -19 -11 -10 3 -16 1 -12
-4 3 -5 12 -9 20 -9 9 0 14 -8 13 -17 -4 -46 14 -61 25 -20 5 18 8 19 16 7 6
-10 6 -16 -1 -18 -6 -3 -5 -9 2 -18 10 -12 8 -13 -7 -8 -18 5 -18 5 -1 -6 9
-6 22 -8 29 -4 8 5 9 2 5 -9 -4 -10 -1 -17 6 -17 8 0 6 -4 -3 -10 -9 -6 -10
-10 -3 -10 7 0 17 8 22 18 9 15 11 14 12 -8 1 -14 0 -31 -1 -39 -1 -9 4 -12
14 -8 13 5 14 3 4 -13 -16 -25 -2 -38 24 -21 11 7 17 8 14 2 -4 -5 -2 -12 4
-16 7 -4 6 -13 -1 -27 -7 -13 -7 -18 -1 -14 6 4 15 -2 21 -11 6 -10 11 -13 11
-7 0 5 -6 16 -12 24 -11 12 -10 12 5 1 19 -15 23 -37 7 -43 -6 -2 -1 -9 11
-16 12 -8 18 -9 15 -3 -4 5 -2 12 3 15 5 3 11 -1 15 -9 3 -8 -2 -19 -11 -24
-14 -7 -13 -10 5 -15 12 -4 22 -14 22 -22 0 -14 11 -18 38 -15 6 1 12 -3 12
-9 0 -6 -4 -8 -10 -5 -5 3 -10 1 -10 -6 0 -7 -5 -8 -13 -3 -7 5 -5 2 5 -7 9
-9 14 -20 10 -24 -4 -5 -2 -5 4 -2 7 4 14 1 17 -7 3 -8 16 -12 31 -11 14 2 24
-1 20 -6 -3 -5 -9 -7 -14 -4 -4 3 -13 -2 -19 -9 -10 -12 -8 -13 9 -9 15 4 21
1 20 -8 -1 -8 -2 -23 -1 -34 2 -16 4 -14 16 10 9 21 14 25 15 13 2 -10 3 -23
4 -29 0 -6 10 -17 20 -25 11 -8 14 -14 8 -14 -7 0 -12 -7 -12 -15 0 -8 5 -15
11 -15 5 0 7 5 3 12 -4 6 -3 8 4 4 6 -3 9 -15 7 -26 -2 -11 0 -20 5 -20 5 0
10 7 12 17 3 14 5 14 18 -2 8 -11 10 -16 3 -12 -8 5 -11 0 -10 -13 1 -12 8
-20 19 -20 14 0 17 -5 12 -24 -5 -20 0 -27 24 -40 16 -8 33 -12 37 -8 4 4 5
-6 1 -21 -4 -19 -3 -26 4 -22 5 3 10 1 10 -5 0 -6 5 -8 10 -5 6 3 14 -4 19
-17 6 -13 10 -16 11 -8 0 13 1 13 10 0 7 -11 4 -17 -13 -22 l-22 -6 22 -1 c12
-1 25 -6 29 -13 5 -7 3 -8 -6 -3 -9 6 -11 4 -5 -4 4 -7 16 -10 27 -8 15 4 18
2 14 -10 -5 -11 -2 -14 10 -9 14 5 15 4 4 -9 -7 -8 -16 -12 -21 -9 -5 3 -9 0
-9 -5 0 -6 9 -11 20 -11 15 0 20 -7 20 -26 0 -24 2 -25 17 -13 10 9 14 9 10 2
-5 -7 1 -21 13 -33 23 -23 25 -36 8 -43 -8 -3 -6 -6 5 -6 9 -1 17 4 17 9 0 6
5 10 10 10 14 0 13 -43 -2 -58 -9 -9 -9 -12 0 -12 7 0 12 5 12 10 0 20 19 9
22 -13 2 -12 10 -23 18 -23 8 -1 19 -2 23 -3 4 0 3 -9 -2 -19 -7 -13 -4 -23
15 -41 13 -13 24 -30 24 -38 0 -11 7 -14 28 -9 24 6 25 5 10 -7 -23 -18 -23
-38 -1 -30 12 5 15 2 10 -10 -4 -11 -2 -14 9 -10 10 4 12 0 7 -13 -7 -18 -6
-18 11 -1 23 22 23 22 19 -15 -3 -20 -1 -28 4 -21 6 8 14 9 23 3 11 -7 12 -10
2 -10 -7 0 -10 -5 -7 -10 3 -5 1 -10 -4 -10 -6 0 -11 -4 -11 -9 0 -5 12 -8 27
-5 23 4 25 3 13 -12 -12 -14 -12 -18 5 -30 26 -19 38 -18 31 3 -4 11 1 8 13
-7 18 -22 18 -25 3 -37 -14 -10 -14 -14 -4 -21 8 -5 13 -12 13 -16 -2 -17 0
-19 11 -8 17 17 28 15 29 -5 0 -11 3 -13 6 -5 2 6 9 9 15 6 5 -3 2 -15 -9 -27
-10 -11 -13 -17 -6 -14 18 11 41 -3 47 -29 4 -13 11 -24 16 -24 6 0 10 -12 10
-26 0 -21 4 -25 18 -22 11 3 19 0 19 -7 0 -7 -11 -10 -26 -9 -14 2 -18 1 -8
-2 9 -3 17 -10 17 -15 0 -6 4 -8 9 -4 6 3 8 -4 6 -15 -2 -13 1 -20 11 -20 8 0
12 -4 9 -10 -3 -5 0 -7 8 -4 10 3 17 -4 21 -20 6 -25 60 -63 81 -57 6 1 4 -3
-3 -10 -17 -18 -15 -32 3 -25 8 3 14 2 14 -2 -4 -25 4 -40 26 -50 28 -13 34
-32 10 -32 -20 0 -19 -16 1 -24 8 -3 12 -11 8 -17 -4 -8 -3 -9 5 -5 9 6 9 11
0 22 -7 9 -8 14 -1 14 10 0 25 -32 27 -53 0 -5 8 -14 17 -21 10 -7 15 -16 11
-20 -4 -4 0 -4 10 0 12 4 19 -1 26 -17 18 -49 20 -49 -320 -49 l-319 0 0 -365
0 -365 365 0 365 0 0 314 c0 256 3 315 14 319 9 4 13 -3 13 -21 0 -15 1 -159
1 -319 l2 -293 214 0 c135 0 217 -4 221 -10 4 -6 11 -8 16 -5 14 9 40 -21 33
-39 -3 -9 -1 -16 6 -16 6 0 8 -5 4 -11 -4 -8 0 -8 15 0 25 14 27 8 5 -13 -14
-15 -14 -16 0 -17 9 -1 21 -3 26 -4 6 -1 12 -3 15 -4 3 0 1 -11 -6 -22 -6 -12
-7 -19 -1 -15 5 3 13 -1 16 -9 3 -8 11 -14 17 -13 7 2 17 -12 22 -29 5 -18 14
-33 18 -33 5 0 5 -8 2 -18 -6 -14 -4 -15 9 -5 21 18 31 3 12 -18 -12 -13 -12
-17 -2 -15 7 1 18 4 23 8 6 4 11 -2 11 -12 0 -10 -5 -16 -11 -14 -5 3 -2 -1 8
-9 9 -8 17 -19 17 -26 0 -11 12 -15 40 -12 11 1 11 -1 -2 -9 -10 -6 -18 -19
-18 -28 0 -13 2 -14 9 -3 7 11 9 11 14 0 4 -12 7 -11 16 1 7 9 11 11 11 3 0
-7 -8 -17 -17 -22 -10 -6 -12 -11 -5 -11 6 0 12 -9 12 -20 0 -11 5 -20 10 -20
6 0 10 5 10 11 0 20 27 -9 34 -36 4 -16 11 -22 21 -19 8 4 15 1 15 -6 0 -6 5
-8 12 -4 6 4 8 3 5 -4 -4 -5 -16 -8 -27 -5 -16 4 -19 2 -14 -12 4 -9 10 -13
13 -8 3 5 15 7 26 4 21 -6 30 -41 13 -52 -5 -4 -3 -9 7 -12 9 -4 13 -3 10 3
-3 6 -2 10 3 10 6 0 12 -7 16 -15 3 -8 1 -15 -5 -15 -5 0 0 -10 11 -22 12 -13
16 -24 10 -26 -5 -2 -7 -8 -4 -14 3 -5 14 -2 25 8 19 17 20 17 13 -1 -4 -10
-3 -16 2 -13 13 8 31 -15 28 -35 -1 -9 2 -15 6 -12 5 3 11 1 15 -5 3 -5 0 -10
-7 -10 -9 0 -9 -3 2 -10 9 -6 811 -10 2178 -10 l2162 0 0 3000 0 3000 -4000 0
-4001 0 1 -514z m247 -828 c-3 -8 -6 -5 -6 6 -1 11 2 17 5 13 3 -3 4 -12 1
-19z m3985 -368 c-1 -52 1 -88 5 -80 61 157 63 160 98 160 53 0 291 -64 406
-109 131 -51 264 -129 264 -154 0 -12 -22 -27 -75 -50 -98 -43 -225 -118 -300
-180 l-61 -49 -107 26 c-315 74 -609 57 -834 -47 -42 -19 -79 -40 -83 -46 -4
-7 10 -4 31 7 75 38 211 80 314 97 170 29 418 12 597 -40 29 -9 53 -20 53 -25
0 -5 -24 -40 -53 -79 -29 -39 -72 -106 -96 -151 -23 -44 -44 -80 -46 -80 -2 0
-32 6 -67 14 -103 23 -206 29 -313 16 -125 -15 -148 -25 -155 -68 -4 -30 -10
-35 -58 -52 -30 -9 -61 -25 -70 -34 -13 -13 -6 -12 36 4 84 32 226 53 318 47
146 -10 294 -73 403 -172 23 -21 41 -42 41 -49 0 -6 -12 -25 -28 -41 -59 -66
-60 -70 -7 -41 28 16 56 33 63 38 8 7 12 7 12 0 0 -5 -30 -39 -67 -74 -38 -36
-88 -84 -113 -107 -53 -51 -37 -44 42 16 74 57 198 133 216 133 20 0 49 -75
62 -160 6 -41 14 -207 17 -368 l6 -293 -29 -30 -28 -30 18 -52 c10 -29 35 -79
57 -112 29 -46 41 -77 48 -127 11 -79 19 -95 67 -138 29 -25 34 -34 23 -41
-22 -14 -35 -11 -69 17 -41 35 -70 93 -77 157 -5 43 -14 61 -49 100 -89 99
-107 189 -65 314 17 51 20 76 15 132 l-7 69 -41 7 c-22 3 -93 13 -156 21
l-115 14 -22 -25 c-28 -31 -29 -45 -5 -46 26 -2 35 -4 65 -17 16 -7 34 -12 41
-12 6 0 48 -17 92 -39 l81 -39 7 -109 c8 -134 24 -183 87 -270 37 -51 49 -76
49 -103 0 -59 19 -108 55 -143 19 -19 35 -39 35 -44 0 -6 -28 -23 -62 -38 -72
-33 -179 -44 -245 -26 -64 18 -156 85 -215 159 -30 37 -79 98 -108 135 -47 59
-140 135 -182 149 -9 3 -5 21 15 65 49 110 27 228 -53 281 -31 21 -43 23 -100
17 -47 -4 -77 -2 -109 9 -24 9 -47 14 -52 11 -4 -3 -27 -43 -50 -88 -45 -89
-103 -178 -151 -232 -36 -42 -63 -44 -134 -11 -65 30 -88 60 -71 91 31 56 152
215 163 215 19 0 44 40 44 70 0 46 -20 99 -35 94 -22 -9 -65 141 -65 225 0
121 49 244 137 341 37 42 43 53 33 65 -7 8 -25 15 -41 15 -24 0 -37 -11 -75
-62 -25 -35 -49 -65 -53 -68 -3 -3 -7 -12 -8 -20 -1 -8 -9 -34 -17 -57 -24
-66 -39 -180 -31 -248 l6 -63 -70 -27 c-131 -52 -233 -186 -278 -365 l-9 -35
-28 50 c-15 28 -43 87 -62 133 l-35 82 26 35 26 34 -38 3 c-34 3 -39 7 -50 41
-55 168 -77 440 -49 610 24 144 17 137 144 137 l107 1 -89 34 c-49 19 -93 38
-97 42 -4 4 0 27 10 49 17 38 25 44 85 64 l65 21 -30 41 c-34 48 -35 44 60
162 186 230 496 413 796 470 118 23 127 23 295 22 l154 -1 -2 -95z m-2690
-1367 c-10 -4 -10 -8 -1 -19 10 -12 9 -13 -5 -8 -21 8 -21 34 2 33 11 0 12 -2
4 -6z m293 -373 c3 -6 -1 -7 -9 -4 -18 7 -21 14 -7 14 6 0 13 -4 16 -10z m66
-107 c13 -16 12 -17 -3 -4 -10 7 -18 15 -18 17 0 8 8 3 21 -13z m74 -93 c3 -5
1 -10 -4 -10 -6 0 -11 5 -11 10 0 6 2 10 4 10 3 0 8 -4 11 -10z m342 -492 c-3
-8 -6 -5 -6 6 -1 11 2 17 5 13 3 -3 4 -12 1 -19z m-137 -683 l0 -185 137 0
137 0 -34 -35 -34 -35 -143 0 -143 0 0 220 0 220 40 0 40 0 0 -185z m695 -75
c-3 -5 1 -10 9 -10 19 0 22 -36 4 -44 -7 -2 -2 -4 11 -3 19 2 26 -4 33 -30 6
-23 13 -31 23 -27 18 7 20 -7 3 -25 -10 -11 -10 -13 0 -7 8 5 12 0 12 -13 0
-19 -6 -21 -55 -21 l-55 0 0 95 c0 60 4 95 11 95 5 0 7 -4 4 -10z m124 -154
c9 -10 8 -15 -4 -20 -10 -4 -15 1 -15 14 0 24 4 25 19 6z m594 -789 c3 -8 2
-20 -3 -26 -5 -9 -7 -4 -7 13 0 29 2 32 10 13z"/>
<path d="M106 4841 c-3 -5 1 -11 9 -15 8 -3 15 -1 15 4 0 13 -18 22 -24 11z"/>
<path d="M495 4290 c3 -5 8 -10 11 -10 2 0 4 5 4 10 0 6 -5 10 -11 10 -5 0 -7
-4 -4 -10z"/>
<path d="M524 4258 c3 -15 26 -23 26 -8 0 6 -4 9 -9 6 -5 -4 -12 -1 -14 4 -3
6 -4 5 -3 -2z"/>
<path d="M860 3789 c0 -5 5 -7 10 -4 6 3 10 8 10 11 0 2 -4 4 -10 4 -5 0 -10
-5 -10 -11z"/>
<path d="M886 3757 c3 -10 9 -15 12 -12 3 3 0 11 -7 18 -10 9 -11 8 -5 -6z"/>
<path d="M955 3670 c-3 -5 -1 -10 4 -10 6 0 11 5 11 10 0 6 -2 10 -4 10 -3 0
-8 -4 -11 -10z"/>
<path d="M1105 3460 c4 -6 11 -8 16 -5 14 9 11 15 -7 15 -8 0 -12 -5 -9 -10z"/>
<path d="M1170 3390 c0 -5 5 -10 11 -10 5 0 7 5 4 10 -3 6 -8 10 -11 10 -2 0
-4 -4 -4 -10z"/>
<path d="M1595 2810 c-3 -5 -1 -10 4 -10 6 0 11 5 11 10 0 6 -2 10 -4 10 -3 0
-8 -4 -11 -10z"/>
<path d="M2192 1991 c-11 -7 -11 -9 2 -14 10 -4 16 -1 16 8 0 17 -1 17 -18 6z"/>
<path d="M2523 1535 c0 -8 4 -12 9 -9 5 3 6 10 3 15 -9 13 -12 11 -12 -6z"/>
<path d="M3110 753 c0 -15 18 -35 23 -27 3 5 -1 15 -9 22 -8 7 -14 9 -14 5z"/>
<path d="M3237 593 c-10 -9 -9 -23 1 -23 5 0 9 7 9 15 0 17 -1 18 -10 8z"/>
<path d="M3441 284 c0 -11 3 -14 6 -6 3 7 2 16 -1 19 -3 4 -6 -2 -5 -13z"/>
<path d="M3501 204 c0 -11 3 -14 6 -6 3 7 2 16 -1 19 -3 4 -6 -2 -5 -13z"/>
<path d="M3606 61 c-3 -5 0 -11 7 -14 8 -3 14 1 14 9 0 16 -13 19 -21 5z"/>
</g>
</svg>
